<?xml version="1.0" encoding="UTF-8" standalone="no"?>
<svg xmlns="http://www.w3.org/2000/svg" viewBox="0 0 31 47"> 

  <!-- cloned symbols -->
  <symbol id="fretboard">
    <g fill="black">
      <rect id="fret0"    width="21" height="1"  x="1.5"  y="14.5" fill-opacity="0.5"/>
      <rect id="fret1"    width="21" height="1"  x="1.5"  y="20.5" fill-opacity="0.5"/>
      <rect id="fret2"    width="21" height="1"  x="1.5"  y="26.5" fill-opacity="0.5"/>
      <rect id="fret3"    width="21" height="1"  x="1.5"  y="32.5" fill-opacity="0.5"/>
      <rect id="fret4"    width="21" height="1"  x="1.5"  y="38.5" fill-opacity="0.5"/>
      <rect id="fret5"    width="21" height="1"  x="1.5"  y="44.5" fill-opacity="0.5"/>
      <rect id="string1"  width="0.5"  height="33" x="1.75"  y="13.5"/>
      <rect id="string2"  width="0.5"  height="33" x="5.75"  y="13.5"/>
      <rect id="string3"  width="0.5"  height="33" x="9.75"  y="13.5"/>
      <rect id="string4"  width="0.5"  height="33" x="13.75" y="13.5"/>
      <rect id="string5"  width="0.5"  height="33" x="17.75" y="13.5"/>
      <rect id="string6"  width="0.5"  height="33" x="21.75" y="13.5"/>
    </g>
  </symbol>

  <symbol id="neck">
    <rect width="22" height="1"  x="1"    y="13"    fill="white"/>
    <rect width="21" height="1"  x="1.5"  y="12.75" fill="black"/>
    <rect width="21" height="1.5"  x="1.5"  y="14"    fill="black"/>
  </symbol>

  <symbol id="necknum-2"><text  x="24" y="20" font-size="6">Ⅱ</text></symbol>
  <symbol id="necknum-3"><text  x="24" y="20" font-size="6">Ⅲ</text></symbol>
  <symbol id="necknum-4"><text  x="24" y="20" font-size="6">Ⅳ</text></symbol>
  <symbol id="necknum-5"><text  x="24" y="20" font-size="6">Ⅴ</text></symbol>
  <symbol id="necknum-6"><text  x="24" y="20" font-size="6">Ⅵ</text></symbol>
  <symbol id="necknum-7"><text  x="24" y="20" font-size="6">Ⅶ</text></symbol>
  <symbol id="necknum-8"><text  x="24" y="20" font-size="6">Ⅷ</text></symbol>
  <symbol id="necknum-9"><text  x="24" y="20" font-size="6">Ⅸ</text></symbol>
  <symbol id="necknum-10"><text x="24" y="20" font-size="6">Ⅹ</text></symbol>
  <symbol id="necknum-11"><text x="24" y="20" font-size="6">Ⅺ</text></symbol>
  <symbol id="necknum-12"><text x="24" y="20" font-size="6">Ⅻ</text></symbol>

  <!-- symbols cloned and moved, positioned -->
  <symbol id="barre-w6"><rect width="24" height="3" x="0" y="0.5" rx="2" ry="2" fill="black"/></symbol>
  <symbol id="barre-w5"><rect width="20" height="3" x="0" y="0.5" rx="2" ry="2" fill="black"/></symbol>
  <symbol id="barre-w4"><rect width="16" height="3" x="0" y="0.5" rx="2" ry="2" fill="black"/></symbol>
  <symbol id="barre-w3"><rect width="12" height="3" x="0" y="0.5" rx="2" ry="2" fill="black"/></symbol>
  <symbol id="barre-w2"><rect width="8"  height="3" x="0" y="0.5" rx="2" ry="2" fill="black"/></symbol>
  <symbol id="barre-w1"><rect width="4"  height="3" x="0" y="0.5" rx="2" ry="2" fill="black"/></symbol>

  <symbol id="o" transform="translate(0,-2)">
    <circle cx="2" cy="2" r="1.5" stroke-width=".75" stroke="black" fill="transparent" />
  </symbol>

  <symbol id="x" transform="translate(-.5,-2.5)">
    <line x1="1" y1="1" x2="4" y2="4" stroke-width=".75" stroke="black" />
    <line x1="4" y1="1" x2="1" y2="4" stroke-width=".75" stroke="black" />
  </symbol>

  <symbol id="finger">
    <circle r="2" cx="2" cy="2" fill="black"/>
  </symbol>

  <symbol id="fingernum-1"><text x="2" y="2.5" font-size="4" fill="white" text-anchor="middle" dominant-baseline="middle">1</text></symbol>
  <symbol id="fingernum-2"><text x="2" y="2.5" font-size="4" fill="white" text-anchor="middle" dominant-baseline="middle">2</text></symbol>
  <symbol id="fingernum-3"><text x="2" y="2.5" font-size="4" fill="white" text-anchor="middle" dominant-baseline="middle">3</text></symbol>
  <symbol id="fingernum-4"><text x="2" y="2.5" font-size="4" fill="white" text-anchor="middle" dominant-baseline="middle">4</text></symbol>

</svg>
