<?xml version="1.0" encoding="UTF-8" standalone="no"?>
<svg xmlns="http://www.w3.org/2000/svg" viewBox="0 0 31 37"> 

  <!-- cloned symbols -->
  <symbol id="fretboard">
    <g fill="black">
      <rect id="fret0"    width="21" height="1"  x="1.5"  y="14" />
      <rect id="fret1"    width="21" height="1"  x="1.5"  y="19"/>
      <rect id="fret2"    width="21" height="1"  x="1.5"  y="24"/>
      <rect id="fret3"    width="21" height="1"  x="1.5"  y="29"/>
      <rect id="fret4"    width="21" height="1"  x="1.5"  y="34"/>
      <rect id="string1"  width="1"  height="25" x="1.5"  y="12" />
      <rect id="string2"  width="1"  height="25" x="5.5"  y="12" />
      <rect id="string3"  width="1"  height="25" x="9.5"  y="12" />
      <rect id="string4"  width="1"  height="25" x="13.5" y="12" />
      <rect id="string5"  width="1"  height="25" x="17.5" y="12" />
      <rect id="string6"  width="1"  height="25" x="21.5" y="12" />
    </g>
  </symbol>

  <symbol id="neck">
    <rect id="neckshape"  width="21" height="3"  x="1.5"  y="12" fill="black" />
  </symbol>

  <symbol id="necknum-2"><text  x="24" y="14" font-size="6">Ⅱ</text></symbol>
  <symbol id="necknum-3"><text  x="24" y="14" font-size="6">Ⅲ</text></symbol>
  <symbol id="necknum-4"><text  x="24" y="14" font-size="6">Ⅳ</text></symbol>
  <symbol id="necknum-5"><text  x="24" y="14" font-size="6">Ⅴ</text></symbol>
  <symbol id="necknum-6"><text  x="24" y="14" font-size="6">Ⅵ</text></symbol>
  <symbol id="necknum-7"><text  x="24" y="14" font-size="6">Ⅶ</text></symbol>
  <symbol id="necknum-8"><text  x="24" y="14" font-size="6">Ⅷ</text></symbol>
  <symbol id="necknum-9"><text  x="24" y="14" font-size="6">Ⅸ</text></symbol>
  <symbol id="necknum-10"><text x="24" y="14" font-size="6">Ⅹ</text></symbol>
  <symbol id="necknum-11"><text x="24" y="14" font-size="6">Ⅺ</text></symbol>
  <symbol id="necknum-12"><text x="24" y="14" font-size="6">Ⅻ</text></symbol>

  <!-- symbols cloned and moved, positioned by CSS -->
  <symbol id="barre-w6"><rect width="24" height="4" x="0" y="0" rx="2" ry="2" fill="black"/></symbol>
  <symbol id="barre-w5"><rect width="20" height="4" x="0" y="0" rx="2" ry="2" fill="black"/></symbol>
  <symbol id="barre-w4"><rect width="16" height="4" x="0" y="0" rx="2" ry="2" fill="black"/></symbol>
  <symbol id="barre-w3"><rect width="12" height="4" x="0" y="0" rx="2" ry="2" fill="black"/></symbol>
  <symbol id="barre-w2"><rect width="8"  height="4" x="0" y="0" rx="2" ry="2" fill="black"/></symbol>
  <symbol id="barre-w1"><rect width="4"  height="4" x="0" y="0" rx="2" ry="2" fill="black"/></symbol>

  <symbol id="o" transform="translate(0,-2)">
    <circle cx="2" cy="2" r="1.5" stroke-width=".75" stroke="black" fill="transparent" />
  </symbol>

  <symbol id="x" transform="translate(-.5,-2.5)">
    <line x1="1" y1="1" x2="4" y2="4" stroke-width=".75" stroke="black" />
    <line x1="4" y1="1" x2="1" y2="4" stroke-width=".75" stroke="black" />
  </symbol>

  <symbol id="finger">
    <circle r="2" cx="2" cy="2" fill="black"/>
  </symbol>

</svg>
